<?xml version="1.0" encoding="UTF-8" standalone="no"?>
<svg
   xmlns:dc="http://purl.org/dc/elements/1.1/"
   xmlns:cc="http://creativecommons.org/ns#"
   xmlns:rdf="http://www.w3.org/1999/02/22-rdf-syntax-ns#"
   xmlns:svg="http://www.w3.org/2000/svg"
   xmlns="http://www.w3.org/2000/svg"
   xmlns:xlink="http://www.w3.org/1999/xlink"
   xmlns:sodipodi="http://sodipodi.sourceforge.net/DTD/sodipodi-0.dtd"
   xmlns:inkscape="http://www.inkscape.org/namespaces/inkscape"
   width="129.87708mm"
   height="129.87708mm"
   viewBox="0 0 129.87708 129.87708"
   version="1.1"
   id="svg8"
   inkscape:version="1.0.1 (3bc2e813f5, 2020-09-07)"
   sodipodi:docname="blackcat.svg">
  <defs
     id="defs2">
    <linearGradient
       inkscape:collect="always"
       id="linearGradient925">
      <stop
         style="stop-color:#9eb7ba;stop-opacity:1"
         offset="0"
         id="stop921" />
      <stop
         style="stop-color:#c5d0c8;stop-opacity:1;"
         offset="0.5508315"
         id="stop934" />
      <stop
         style="stop-color:#e6e6d5;stop-opacity:1"
         offset="1"
         id="stop923" />
    </linearGradient>
    <linearGradient
       inkscape:collect="always"
       xlink:href="#linearGradient925"
       id="linearGradient927"
       x1="107.40756"
       y1="182.96828"
       x2="110.33162"
       y2="58.955212"
       gradientUnits="userSpaceOnUse" />
  </defs>
  <sodipodi:namedview
     id="base"
     pagecolor="#ffffff"
     bordercolor="#666666"
     borderopacity="1.0"
     inkscape:pageopacity="0.0"
     inkscape:pageshadow="2"
     inkscape:zoom="0.49497475"
     inkscape:cx="-192.33252"
     inkscape:cy="287.27223"
     inkscape:document-units="mm"
     inkscape:current-layer="layer1"
     inkscape:document-rotation="0"
     showgrid="false"
     inkscape:window-width="1920"
     inkscape:window-height="1013"
     inkscape:window-x="-9"
     inkscape:window-y="-9"
     inkscape:window-maximized="1" />
  <metadata
     id="metadata5">
    <rdf:RDF>
      <cc:Work
         rdf:about="">
        <dc:format>image/svg+xml</dc:format>
        <dc:type
           rdf:resource="http://purl.org/dc/dcmitype/StillImage" />
        <dc:title></dc:title>
      </cc:Work>
    </rdf:RDF>
  </metadata>
  <g
     inkscape:label="Calque 1"
     inkscape:groupmode="layer"
     id="layer1"
     transform="translate(-44.866493,-55.755936)">
    <circle
       style="fill:url(#linearGradient927);fill-opacity:1;stroke:#4b676f;stroke-width:4;stroke-miterlimit:4;stroke-dasharray:none;stroke-opacity:1"
       id="path903"
       cx="109.80503"
       cy="120.69447"
       r="62.938538" />
    <ellipse
       style="fill:#f8efd8;fill-opacity:1;stroke:#4b676f;stroke-width:1.165;stroke-miterlimit:4;stroke-dasharray:none;stroke-opacity:1"
       id="path905"
       cx="109.33473"
       cy="115.59943"
       rx="26.192413"
       ry="9.7553377" />
    <ellipse
       style="fill:#4b676f;fill-opacity:1;stroke:#4b676f;stroke-width:1.165;stroke-miterlimit:4;stroke-dasharray:none;stroke-opacity:1"
       id="path907"
       cx="111.31399"
       cy="138.2448"
       rx="13.418155"
       ry="16.347467" />
    <ellipse
       style="fill:#4b676f;fill-opacity:1;stroke:#4b676f;stroke-width:1.165;stroke-miterlimit:4;stroke-dasharray:none;stroke-opacity:1"
       id="path909"
       cx="84.056259"
       cy="95.94976"
       rx="8.15172"
       ry="10.423512" />
    <ellipse
       style="fill:#4b676f;fill-opacity:1;stroke:#4b676f;stroke-width:1.165;stroke-miterlimit:4;stroke-dasharray:none;stroke-opacity:1"
       id="path911"
       cx="138.04471"
       cy="94.212502"
       rx="7.0826426"
       ry="10.557146" />
    <path
       style="fill:#192019;fill-opacity:1;stroke-width:0.117312"
       d="m 106.6987,165.63334 c -5.06513,-0.48816 -9.780735,-1.82124 -14.076685,-3.97942 -5.11015,-2.56721 -9.1039,-5.55571 -12.44929,-9.31572 -1.37522,-1.54566 -1.6744,-1.98831 -1.5849,-2.34492 0.0519,-0.20693 0.60707,-0.63439 2.04769,-1.57677 3.00943,-1.96862 5.51655,-3.39819 8.93558,-5.0951 3.52237,-1.74821 4.01228,-2.04407 4.22164,-2.54952 0.3164,-0.76386 -0.14598,-1.77509 -0.91732,-2.00619 -0.40644,-0.12176 -0.5767,-0.0788 -2.36969,0.59827 -8.76847,3.31105 -14.38692,6.02083 -19.63463,9.46981 -1.78702,1.17449 -2.31311,1.43064 -2.94413,1.43352 -1.1667,0.005 -2.24848,-1.44935 -1.93151,-2.59731 0.16873,-0.61107 0.45275,-0.92048 1.70563,-1.85806 6.17787,-4.62313 14.56625,-8.50412 22.79215,-10.54508 1.31369,-0.32594 2.55427,-0.68793 2.75684,-0.80442 0.20256,-0.11648 0.46355,-0.40518 0.57997,-0.64156 0.17898,-0.36339 0.19132,-0.50533 0.0799,-0.91895 -0.1482,-0.55035 -0.56213,-0.99552 -1.00425,-1.08003 -0.50891,-0.0973 -2.13285,0.12004 -5.51994,0.73871 -7.01974,1.28219 -11.65983,2.43016 -19.63481,4.85767 -2.72447,0.8293 -3.25609,0.93453 -3.87683,0.76738 -1.40031,-0.37706 -1.88476,-2.33923 -0.8473,-3.43181 0.58248,-0.61343 1.3042,-0.87149 5.35916,-1.91629 0.5751,-0.14817 1.12177,-0.34555 1.21483,-0.43861 0.14576,-0.14577 0.14932,-0.49182 0.0257,-2.49888 -0.42795,-6.94559 0.72642,-12.83126 3.85107,-19.63504 0.45691,-0.9949 0.65964,-2.0512 0.56931,-2.96622 -0.0395,-0.40004 -0.30837,-1.53269 -0.5975,-2.51701 -0.89302,-3.04023 -1.51773,-6.188114 -1.8449,-9.296354 -0.18947,-1.80001 -0.18988,-6.85374 -7e-4,-8.68111 0.36258,-3.50258 1.31546,-7.989832 2.01364,-9.482548 0.82126,-1.755857 1.55023,-1.993478 3.69489,-1.204413 1.409,0.518405 1.71127,0.653683 3.8123,1.706217 5.13805,2.573964 9.64294,5.733174 14.68894,10.301134 1.66675,1.50885 1.87567,1.60353 2.91051,1.31904 4.864865,-1.33742 8.169785,-1.7878 12.197885,-1.66227 3.28236,0.10229 5.75859,0.47731 9.19336,1.39231 1.0348,0.27566 1.85935,0.43566 2.0276,0.39343 0.15596,-0.0392 0.7437,-0.49957 1.30609,-1.02317 4.85241,-4.51774 9.96069,-8.11333 15.36956,-10.81828 3.81985,-1.910283 5.36362,-2.34061 6.21593,-1.7327 1.79842,1.282716 3.39771,9.74349 3.14125,16.61821 -0.17377,4.65826 -0.70217,7.850704 -1.99026,12.024524 -0.34846,1.12913 -0.69577,2.36973 -0.77179,2.7569 -0.16315,0.83082 -0.18707,0.75065 1.08552,3.63662 1.3186,2.99031 2.335,6.12541 2.89047,8.91574 0.56298,2.82805 0.64468,3.81847 0.66292,8.0359 0.01,2.226 0.0252,4.11411 0.0346,4.19581 0.0262,0.22775 0.64061,0.46033 2.24602,0.85018 3.63186,0.88194 4.81583,1.65351 4.80723,3.13277 -0.005,0.93712 -0.75355,1.93855 -1.56137,2.0901 -0.46333,0.0869 -1.28051,-0.11858 -4.65361,-1.17025 -5.29205,-1.64997 -10.39905,-2.95437 -15.62823,-3.99167 -4.01255,-0.79596 -6.8386,-1.23564 -7.94209,-1.23564 -0.81494,0 -0.87242,0.0183 -1.25298,0.39886 -0.47406,0.47406 -0.53486,1.0777 -0.16899,1.67774 0.32831,0.53845 0.77978,0.72745 2.76159,1.15605 6.55442,1.41752 13.16611,4.13722 19.18057,7.88986 2.13283,1.33076 4.57129,3.09214 5.10955,3.69082 0.90036,1.00141 0.93286,1.97552 0.0968,2.90094 -0.49333,0.54606 -1.04358,0.75036 -1.82002,0.67575 -0.48853,-0.0469 -0.83477,-0.22871 -2.30325,-1.20915 -0.95056,-0.63465 -2.46737,-1.59536 -3.37067,-2.13491 -3.06036,-1.82798 -8.88982,-4.61491 -12.90436,-6.16928 -5.75713,-2.22907 -5.82328,-2.24559 -6.49171,-1.62118 -0.65963,0.61619 -0.63838,1.50665 0.0519,2.17709 0.26227,0.25471 1.53198,0.95314 3.48484,1.91689 3.35672,1.65657 5.36516,2.7491 7.53184,4.09707 1.76553,1.0984 3.92823,2.68482 3.92823,2.88149 0,0.43506 -4.51861,5.01887 -6.58435,6.67937 -6.02894,4.84621 -12.53017,7.58546 -20.43512,8.6102 -1.63318,0.21171 -5.98228,0.30687 -7.47037,0.16346 z m -2.05297,-22.68356 c 1.70766,-0.54362 3.2907,-1.70155 4.34377,-3.1773 0.61738,-0.86518 0.79048,-1.02595 1.00841,-0.93661 0.0888,0.0364 0.45185,0.46696 0.80672,0.95677 1.61443,2.22831 3.93737,3.55624 6.22091,3.55624 1.6427,0 2.78221,-0.65184 2.89543,-1.65629 0.0733,-0.65074 -0.1912,-1.23415 -0.63637,-1.4034 -0.17724,-0.0674 -0.70841,-0.0847 -1.25549,-0.041 -1.11309,0.089 -1.9273,-0.13975 -2.97589,-0.83598 -1.70638,-1.13297 -2.7512,-2.87416 -3.08948,-5.14861 -0.21479,-1.44416 -0.15337,-1.58232 1.33169,-2.99551 1.66083,-1.58044 2.43632,-2.65297 2.43632,-3.36951 0,-0.39021 -0.0697,-0.58455 -0.28795,-0.80279 l -0.28794,-0.28795 h -5.2181 c -5.13755,0 -5.74027,0.0393 -5.96239,0.38861 -0.46053,0.72427 0.5896,2.53483 2.20357,3.79924 1.26894,0.9941 1.63422,1.65175 1.61339,2.90477 -0.029,1.74183 -0.64138,3.23694 -1.80183,4.39876 -1.32236,1.32392 -2.73533,1.9193 -4.58857,1.93348 -1.28638,0.01 -1.563525,0.14879 -1.695025,0.84976 -0.10221,0.54483 0.22963,1.3756 0.676585,1.69386 0.91599,0.65224 2.54942,0.71872 4.26224,0.17346 z m -8.687245,-21.01373 c 2.42095,-0.63058 4.445155,-2.75618 4.741615,-4.97912 0.31768,-2.38196 -0.722345,-4.58979 -2.640275,-5.60499 -0.39617,-0.2097 -0.8023,-0.38127 -0.90252,-0.38127 -0.51331,0 -0.73187,1.24935 -0.34199,1.95491 0.11281,0.20416 0.33434,0.60009 0.49227,0.87985 0.40331,0.7144 0.42005,2.15415 0.0335,2.88096 -0.68487,1.2877 -1.6698,1.91119 -3.01254,1.90701 -0.99018,-0.003 -1.57707,-0.24119 -2.20011,-0.89261 -0.6382,-0.66726 -0.94884,-1.45923 -0.95974,-2.44683 -0.01,-0.87075 0.19198,-1.43904 0.8077,-2.277 0.35897,-0.48853 0.42025,-1.62754 0.10456,-1.94323 -0.48066,-0.48066 -2.46336,0.76699 -3.28352,2.0662 -0.99747,1.5801 -1.0054,3.91575 -0.0196,5.76535 1.26738,2.37785 4.51267,3.76568 7.18063,3.07077 z m 31.680475,-0.22975 c 3.51448,-1.41507 5.10645,-4.97852 3.62406,-8.11204 -0.4362,-0.92204 -1.37505,-1.89242 -2.21574,-2.29014 -0.82654,-0.39102 -1.17838,-0.41888 -1.34554,-0.10653 -0.25701,0.48022 -0.13511,1.12332 0.41548,2.19182 0.52843,1.02552 0.53616,1.05681 0.4895,1.98048 -0.0573,1.13418 -0.31769,1.70491 -1.08668,2.3818 -0.64681,0.56935 -1.39321,0.8452 -2.27756,0.84171 -1.70449,-0.007 -3.09821,-1.55578 -3.11134,-3.45814 -0.006,-0.86862 0.10714,-1.17248 0.80693,-2.16729 0.45377,-0.64508 0.49542,-1.50369 0.0924,-1.90589 l -0.26789,-0.26738 -0.78071,0.4106 c -1.00866,0.53047 -2.01618,1.51617 -2.4137,2.36142 -0.61323,1.30392 -0.68274,3.05837 -0.17549,4.42938 0.67838,1.83353 2.377,3.39116 4.31626,3.958 0.33703,0.0985 0.99451,0.14139 1.81834,0.11858 1.09117,-0.0302 1.41725,-0.0868 2.11163,-0.36638 z M 82.594715,99.045876 c 1.85384,-1.69054 3.42744,-2.99831 4.83692,-4.01978 0.96961,-0.70269 1.17952,-0.98434 0.94515,-1.26814 -0.43873,-0.53124 -3.17094,-2.95224 -5.08684,-4.50743 -1.45251,-1.17904 -3.3676,-2.45888 -3.62438,-2.42215 -0.39543,0.0566 -0.55274,1.10303 -0.5519,3.67129 8.3e-4,2.56948 0.21141,4.67188 0.71723,7.16128 0.44734,2.2016 0.67351,2.986244 0.86077,2.986244 0.0809,0 0.93726,-0.720594 1.90305,-1.601314 z m 56.770975,0.8681 c 0.52832,-1.82786 0.96826,-4.68569 1.10912,-7.20466 0.1064,-1.90277 -0.0166,-4.94699 -0.22176,-5.48649 -0.16208,-0.42629 -0.55314,-0.3881 -1.30961,0.12788 -3.21946,2.19594 -5.02454,3.60322 -6.75872,5.26922 -1.31842,1.26659 -1.31512,1.30129 0.23472,2.46955 1.5738,1.18633 2.72188,2.15193 4.70708,3.95889 0.89519,0.81483 1.72517,1.481504 1.84439,1.481504 0.16068,0 0.26282,-0.15935 0.39478,-0.615894 z"
       id="path901" />
  </g>
</svg>
